<svg width="46" height="45" viewBox="0 0 46 45" fill="none" xmlns="http://www.w3.org/2000/svg">
<g clip-path="url(#clip0_78_553)">
<path d="M23 4.05176C29.1453 4.05176 29.873 4.07812 32.2898 4.18359C34.5359 4.28027 35.7488 4.64941 36.5574 4.95703C37.6266 5.36133 38.3992 5.85352 39.1988 6.63574C40.0074 7.42676 40.5016 8.17383 40.9148 9.21973C41.2293 10.0107 41.6066 11.2061 41.7055 13.3945C41.8133 15.7676 41.8402 16.4795 41.8402 22.4824C41.8402 28.4941 41.8133 29.2061 41.7055 31.5703C41.6066 33.7676 41.2293 34.9541 40.9148 35.7451C40.5016 36.791 39.9984 37.5469 39.1988 38.3291C38.3902 39.1201 37.6266 39.6035 36.5574 40.0078C35.7488 40.3154 34.527 40.6846 32.2898 40.7813C29.8641 40.8867 29.1363 40.9131 23 40.9131C16.8547 40.9131 16.127 40.8867 13.7102 40.7813C11.4641 40.6846 10.2512 40.3154 9.44258 40.0078C8.37344 39.6035 7.60078 39.1113 6.80117 38.3291C5.99258 37.5381 5.49844 36.791 5.08516 35.7451C4.7707 34.9541 4.39336 33.7588 4.29453 31.5703C4.18672 29.1973 4.15977 28.4854 4.15977 22.4824C4.15977 16.4707 4.18672 15.7588 4.29453 13.3945C4.39336 11.1973 4.7707 10.0107 5.08516 9.21973C5.49844 8.17383 6.00156 7.41797 6.80117 6.63574C7.60977 5.84473 8.37344 5.36133 9.44258 4.95703C10.2512 4.64941 11.473 4.28027 13.7102 4.18359C16.127 4.07812 16.8547 4.05176 23 4.05176ZM23 0C16.7559 0 15.9742 0.0263672 13.5215 0.131836C11.0777 0.237305 9.39766 0.624023 7.94219 1.17773C6.42383 1.75781 5.13906 2.52246 3.86328 3.7793C2.57852 5.02734 1.79688 6.28418 1.20391 7.76074C0.637891 9.19336 0.242578 10.8281 0.134766 13.2188C0.0269531 15.627 0 16.3916 0 22.5C0 28.6084 0.0269531 29.373 0.134766 31.7725C0.242578 34.1631 0.637891 35.8066 1.20391 37.2305C1.79688 38.7158 2.57852 39.9727 3.86328 41.2207C5.13906 42.4688 6.42383 43.2422 7.9332 43.8135C9.39766 44.3672 11.0688 44.7539 13.5125 44.8594C15.9652 44.9648 16.7469 44.9912 22.991 44.9912C29.2352 44.9912 30.0168 44.9648 32.4695 44.8594C34.9133 44.7539 36.5934 44.3672 38.0488 43.8135C39.5582 43.2422 40.843 42.4688 42.1188 41.2207C43.3945 39.9727 44.1852 38.7158 44.7691 37.2393C45.3352 35.8066 45.7305 34.1719 45.8383 31.7813C45.9461 29.3818 45.973 28.6172 45.973 22.5088C45.973 16.4004 45.9461 15.6357 45.8383 13.2363C45.7305 10.8457 45.3352 9.20215 44.7691 7.77832C44.2031 6.28418 43.4215 5.02734 42.1367 3.7793C40.8609 2.53125 39.5762 1.75781 38.0668 1.18652C36.6023 0.632812 34.9313 0.246094 32.4875 0.140625C30.0258 0.0263672 29.2441 0 23 0Z" fill="#F8F8FB"/>
<path d="M23 10.9424C16.4773 10.9424 11.1855 16.1191 11.1855 22.5C11.1855 28.8809 16.4773 34.0576 23 34.0576C29.5227 34.0576 34.8145 28.8809 34.8145 22.5C34.8145 16.1191 29.5227 10.9424 23 10.9424ZM23 29.9971C18.7684 29.9971 15.3363 26.6396 15.3363 22.5C15.3363 18.3604 18.7684 15.0029 23 15.0029C27.2316 15.0029 30.6637 18.3604 30.6637 22.5C30.6637 26.6396 27.2316 29.9971 23 29.9971Z" fill="#F8F8FB"/>
<path d="M38.0398 10.4854C38.0398 11.9795 36.8 13.1836 35.2816 13.1836C33.7543 13.1836 32.5234 11.9707 32.5234 10.4854C32.5234 8.99121 33.7633 7.78711 35.2816 7.78711C36.8 7.78711 38.0398 9 38.0398 10.4854Z" fill="#F8F8FB"/>
</g>
<defs>
<clipPath id="clip0_78_553">
<rect width="46" height="45" fill="white"/>
</clipPath>
</defs>
</svg>
